<?xml version="1.0" encoding="UTF-8" ?>
<!DOCTYPE svg PUBLIC "-//W3C//DTD SVG 1.1//EN" "http://www.w3.org/Graphics/SVG/1.1/DTD/svg11.dtd">
<svg width="1024pt" height="700pt" viewBox="0 0 1024 700" version="1.1" xmlns="http://www.w3.org/2000/svg">
<g id="#ffffffff">
<path fill="#ffffff" opacity="1.00" d=" M 283.24 89.39 C 284.55 88.19 285.93 86.60 287.92 86.99 C 330.42 87.03 372.92 86.96 415.42 87.03 C 393.69 142.48 371.77 197.85 350.03 253.29 C 349.65 254.30 348.96 255.14 348.33 256.00 C 326.64 201.76 305.67 147.23 284.15 92.91 C 283.79 91.76 283.08 90.64 283.24 89.39 Z" />
<path fill="#ffffff" opacity="1.00" d=" M 503.19 87.02 C 618.79 86.97 734.40 87.02 850.00 87.00 C 856.07 87.27 862.28 86.33 868.26 87.69 C 880.94 91.20 890.07 102.32 894.91 114.10 C 895.09 177.57 895.02 241.07 894.94 304.55 C 857.02 304.51 819.09 304.38 781.18 304.61 C 781.32 318.80 781.23 333.00 781.23 347.19 C 805.19 347.32 829.16 347.23 853.13 347.24 C 828.51 381.52 803.61 415.60 778.88 449.81 C 777.78 450.92 778.00 452.49 777.98 453.92 C 778.02 461.95 777.99 469.97 778.00 478.00 C 768.33 478.00 758.66 478.00 749.00 478.00 C 748.98 465.07 749.03 452.15 748.97 439.22 C 723.46 439.23 697.94 439.32 672.43 439.18 C 697.14 404.24 722.46 369.72 747.26 334.85 C 747.82 324.78 747.35 314.62 747.49 304.52 C 701.05 304.55 654.61 304.35 608.18 304.62 C 608.33 318.81 608.22 333.00 608.23 347.20 C 632.20 347.32 656.16 347.23 680.13 347.24 C 655.51 381.52 630.61 415.60 605.88 449.81 C 604.78 450.92 605.00 452.50 604.98 453.93 C 605.02 461.95 604.99 469.98 605.00 478.00 C 588.22 477.94 571.43 478.12 554.65 477.91 C 562.44 474.52 570.23 470.93 577.03 465.76 C 573.36 455.53 569.48 445.39 565.78 435.18 C 565.15 434.11 565.25 432.34 563.92 431.87 C 555.40 435.23 547.00 439.14 537.97 440.96 C 530.10 442.58 522.02 442.64 514.03 442.46 C 505.70 442.04 497.48 438.37 492.05 431.98 C 486.87 426.21 483.98 418.68 483.16 411.03 C 498.09 410.39 513.06 410.93 528.00 410.75 C 545.40 410.76 562.80 410.73 580.20 410.77 C 579.85 390.73 582.09 370.15 576.11 350.69 C 571.18 333.72 559.97 318.26 544.28 309.79 C 528.75 301.25 510.30 299.94 492.99 301.96 C 475.75 304.00 459.15 312.63 448.56 326.54 C 435.25 343.08 429.29 364.41 428.37 385.35 C 428.06 398.33 427.77 411.52 431.04 424.20 C 436.39 446.96 451.72 467.33 472.66 477.95 C 444.52 478.05 416.37 478.00 388.23 477.97 C 388.28 432.97 388.25 387.96 388.24 342.96 C 388.18 341.83 388.37 340.75 388.83 339.72 C 426.94 255.49 465.11 171.28 503.19 87.02 Z" />
<path fill="#ffffff" opacity="1.00" d=" M 91.61 261.64 C 134.76 222.97 177.76 184.12 220.97 145.52 C 249.74 209.02 278.44 272.56 307.05 336.12 C 307.52 351.06 307.11 366.04 307.25 381.00 C 307.24 413.33 307.26 445.66 307.24 478.00 C 298.20 477.93 289.15 478.13 280.12 477.91 C 266.18 466.23 252.28 454.42 239.04 441.93 C 189.02 395.62 139.01 349.30 88.99 302.99 C 82.86 297.26 78.93 288.64 80.43 280.18 C 81.73 272.91 86.06 266.40 91.61 261.64 M 173.29 252.17 C 163.24 253.06 154.15 259.82 149.74 268.80 C 146.44 274.97 146.69 282.24 147.37 288.99 C 149.95 302.97 163.76 313.86 177.99 312.96 C 193.29 313.22 206.84 299.93 207.89 284.88 C 209.06 272.43 201.49 259.85 190.21 254.63 C 184.98 252.05 179.01 251.68 173.29 252.17 Z" />
<path fill="#ffffff" opacity="1.00" d=" M 491.36 350.36 C 496.67 344.19 505.69 343.16 513.22 344.91 C 518.27 346.02 522.56 349.64 524.81 354.25 C 528.32 360.99 528.44 368.80 528.22 376.23 C 513.06 376.26 497.89 376.26 482.73 376.22 C 483.12 367.10 485.42 357.53 491.36 350.36 Z" />
<path fill="#ffffff" opacity="1.00" d=" M 874.50 398.54 C 881.37 389.20 887.90 379.59 894.95 370.39 C 895.06 393.34 894.97 416.29 895.00 439.24 C 878.47 439.21 861.95 439.33 845.43 439.18 C 854.91 425.48 864.86 412.12 874.50 398.54 Z" />
<path fill="#ffffff" opacity="1.00" d=" M 15.23 501.80 C 44.49 501.69 73.74 501.77 103.00 501.76 C 102.97 508.35 103.07 514.95 102.94 521.55 C 80.83 521.41 58.72 521.60 36.61 521.45 C 36.33 532.33 36.63 543.22 36.45 554.10 C 56.36 554.43 76.28 554.17 96.20 554.23 C 96.30 560.56 96.24 566.90 96.24 573.24 C 76.36 573.22 56.49 573.34 36.62 573.18 C 36.36 584.19 36.55 595.22 36.53 606.24 C 59.42 606.25 82.31 606.26 105.20 606.23 C 105.30 612.82 105.24 619.41 105.24 626.00 C 75.24 625.99 45.23 626.03 15.22 625.97 C 15.27 584.58 15.25 543.19 15.23 501.80 Z" />
<path fill="#ffffff" opacity="1.00" d=" M 120.79 551.79 C 130.24 537.79 147.18 529.50 163.99 529.98 C 177.67 529.44 191.44 534.89 200.90 544.81 C 196.87 549.59 193.03 554.53 188.97 559.30 C 182.16 553.74 174.09 548.81 165.03 548.73 C 154.03 548.07 142.98 553.91 137.21 563.26 C 130.61 574.50 132.53 590.01 141.67 599.31 C 149.50 608.03 162.61 611.43 173.70 607.68 C 179.96 605.66 185.27 601.55 189.82 596.89 C 193.75 601.35 197.86 605.64 201.84 610.06 C 191.67 620.45 177.68 627.50 162.96 627.52 C 151.01 628.01 138.89 624.05 129.77 616.26 C 121.42 609.57 115.75 599.74 113.96 589.21 C 111.76 576.51 113.37 562.60 120.79 551.79 Z" />
<path fill="#ffffff" opacity="1.00" d=" M 244.48 530.83 C 256.94 528.76 270.41 530.00 281.42 536.58 C 292.66 543.37 301.51 554.60 304.18 567.60 C 306.41 578.58 305.44 590.38 300.47 600.52 C 293.82 613.68 281.06 623.77 266.47 626.50 C 254.36 628.72 241.27 627.62 230.33 621.65 C 218.39 615.06 209.06 603.40 206.24 589.96 C 203.97 579.19 204.88 567.62 209.58 557.61 C 216.18 543.90 229.43 533.47 244.48 530.83 M 248.37 548.58 C 240.89 550.02 234.23 554.78 230.09 561.13 C 222.64 573.27 223.72 590.76 233.92 601.06 C 244.58 611.95 263.93 612.45 275.18 602.21 C 289.32 589.83 288.32 564.05 272.74 553.26 C 265.82 548.17 256.66 547.02 248.37 548.58 Z" />
<path fill="#ffffff" opacity="1.00" d=" M 339.44 548.03 C 344.70 538.11 355.10 531.50 366.15 530.17 C 373.92 529.49 382.10 530.13 389.06 533.92 C 394.72 536.96 398.97 542.16 401.51 548.01 C 407.76 540.50 415.56 533.81 425.23 531.36 C 436.62 528.55 449.68 529.47 459.32 536.68 C 465.54 541.09 469.69 548.00 471.36 555.38 C 473.24 562.78 472.68 570.45 472.75 578.00 C 472.77 593.99 472.72 609.98 472.78 625.97 C 466.00 626.00 459.22 626.05 452.45 625.94 C 452.57 609.29 452.45 592.64 452.51 576.00 C 452.61 568.70 451.86 560.77 447.22 554.81 C 442.93 549.38 435.52 547.69 428.91 548.15 C 422.07 548.56 415.42 551.74 410.88 556.89 C 406.81 561.59 405.31 567.94 405.25 574.04 C 405.25 591.36 405.26 608.68 405.24 626.00 C 398.49 626.00 391.75 625.99 385.00 626.00 C 385.01 608.33 384.99 590.66 385.01 572.99 C 385.08 563.94 382.68 552.35 372.85 549.22 C 361.81 545.71 348.38 550.37 342.72 560.68 C 339.34 566.87 339.41 574.14 339.50 581.00 C 339.54 595.98 339.44 610.96 339.55 625.94 C 332.77 626.05 326.00 626.00 319.22 625.97 C 319.28 594.40 319.23 562.82 319.25 531.25 C 325.96 531.21 332.67 531.33 339.38 531.17 C 339.61 536.79 339.51 542.41 339.44 548.03 Z" />
<path fill="#ffffff" opacity="1.00" d=" M 511.44 548.03 C 516.70 538.11 527.10 531.50 538.16 530.17 C 545.69 529.52 553.58 530.09 560.42 533.58 C 566.37 536.58 570.90 541.93 573.50 548.01 C 579.76 540.51 587.56 533.80 597.23 531.36 C 608.62 528.55 621.68 529.47 631.32 536.68 C 637.54 541.09 641.69 548.00 643.37 555.39 C 645.24 562.78 644.68 570.45 644.75 578.00 C 644.77 593.99 644.72 609.98 644.78 625.97 C 638.00 626.00 631.22 626.05 624.45 625.94 C 624.56 608.30 624.47 590.66 624.50 573.03 C 624.32 566.46 623.16 559.40 618.75 554.27 C 614.64 549.48 608.01 547.92 601.95 548.08 C 594.52 548.29 587.16 551.66 582.44 557.44 C 578.67 562.08 577.32 568.18 577.25 574.05 C 577.25 591.36 577.26 608.68 577.24 626.00 C 570.49 626.00 563.74 626.00 557.00 626.00 C 557.01 608.33 556.99 590.66 557.01 572.99 C 557.08 563.94 554.68 552.35 544.85 549.22 C 533.81 545.71 520.38 550.37 514.72 560.68 C 511.34 566.87 511.41 574.14 511.50 581.00 C 511.53 595.98 511.44 610.96 511.55 625.94 C 504.77 626.05 498.00 626.00 491.22 625.97 C 491.28 594.40 491.23 562.82 491.25 531.25 C 497.96 531.21 504.67 531.32 511.39 531.18 C 511.60 536.79 511.51 542.41 511.44 548.03 Z" />
<path fill="#ffffff" opacity="1.00" d=" M 670.29 544.29 C 679.29 535.10 692.07 529.62 704.98 529.98 C 718.67 529.49 732.68 534.79 741.93 545.03 C 748.17 551.73 751.32 560.85 751.83 569.91 C 752.16 575.78 751.98 581.67 751.94 587.55 C 727.11 587.47 702.27 587.48 677.43 587.54 C 678.00 593.38 680.73 598.98 685.36 602.67 C 694.69 610.58 708.11 611.96 719.54 608.44 C 725.18 606.82 730.25 603.43 733.99 598.92 C 737.81 603.22 741.90 607.29 745.59 611.73 C 735.42 622.40 720.60 627.75 706.00 627.53 C 690.53 628.10 674.92 620.75 665.87 608.14 C 658.17 597.57 656.20 583.80 657.70 571.06 C 658.74 561.07 663.03 551.32 670.29 544.29 M 684.42 555.42 C 679.72 559.41 677.82 565.57 677.25 571.51 C 695.44 572.04 713.66 571.64 731.86 571.71 C 731.53 568.41 731.26 565.04 730.03 561.93 C 727.99 556.18 723.06 551.83 717.55 549.46 C 706.58 544.90 693.14 547.37 684.42 555.42 Z" />
<path fill="#ffffff" opacity="1.00" d=" M 784.45 549.90 C 790.74 538.94 802.18 530.02 815.23 529.90 C 815.11 536.62 815.57 543.33 815.55 550.06 C 808.21 550.23 800.36 551.61 794.82 556.82 C 787.17 563.99 784.67 574.89 784.52 585.03 C 784.50 598.66 784.46 612.30 784.55 625.94 C 777.77 626.05 770.99 626.00 764.22 625.97 C 764.28 594.40 764.23 562.82 764.25 531.25 C 770.96 531.21 777.67 531.32 784.39 531.18 C 784.61 537.42 784.50 543.66 784.45 549.90 Z" />
<path fill="#ffffff" opacity="1.00" d=" M 827.79 551.78 C 837.24 537.79 854.18 529.50 871.00 529.98 C 884.67 529.44 898.44 534.89 907.90 544.81 C 903.87 549.59 900.02 554.53 895.97 559.30 C 889.16 553.74 881.09 548.81 872.04 548.73 C 861.03 548.07 849.97 553.91 844.20 563.27 C 837.61 574.50 839.53 590.02 848.68 599.31 C 856.50 608.03 869.61 611.43 880.69 607.68 C 886.96 605.66 892.27 601.55 896.82 596.89 C 900.75 601.35 904.86 605.64 908.84 610.06 C 898.66 620.45 884.68 627.50 869.95 627.52 C 858.00 628.01 845.88 624.05 836.76 616.26 C 828.42 609.56 822.75 599.74 820.96 589.21 C 818.75 576.51 820.37 562.60 827.79 551.78 Z" />
<path fill="#ffffff" opacity="1.00" d=" M 921.47 551.43 C 930.42 537.80 946.65 529.20 963.01 529.98 C 981.32 529.51 1000.77 540.26 1006.64 558.26 C 1009.85 567.68 1008.89 577.77 1008.94 587.55 C 984.11 587.46 959.27 587.48 934.44 587.54 C 934.99 593.37 937.73 598.98 942.35 602.67 C 951.68 610.58 965.11 611.96 976.54 608.44 C 982.18 606.82 987.25 603.42 990.99 598.92 C 994.81 603.23 998.91 607.29 1002.58 611.74 C 992.41 622.40 977.59 627.75 963.00 627.53 C 951.32 627.88 939.52 623.98 930.60 616.38 C 921.94 609.41 916.42 598.96 914.92 588.00 C 913.17 575.59 914.55 562.16 921.47 551.43 M 941.42 555.42 C 936.72 559.41 934.82 565.57 934.25 571.51 C 952.43 572.04 970.66 571.64 988.86 571.71 C 988.53 568.41 988.25 565.04 987.03 561.93 C 984.99 556.18 980.06 551.83 974.55 549.46 C 963.57 544.90 950.13 547.37 941.42 555.42 Z" />
</g>
</svg>
