<?xml version="1.0" encoding="UTF-8" ?>
<!DOCTYPE svg PUBLIC "-//W3C//DTD SVG 1.1//EN" "http://www.w3.org/Graphics/SVG/1.1/DTD/svg11.dtd">
<svg width="1024pt" height="700pt" viewBox="0 0 1024 700" version="1.1" xmlns="http://www.w3.org/2000/svg">
<g id="#f40a41ff">
<path fill="#f40a41" opacity="1.00" d=" M 283.21 89.40 C 285.51 86.16 289.59 87.06 293.01 86.99 C 333.81 87.04 374.61 86.95 415.41 87.03 C 403.69 117.05 391.82 147.02 380.03 177.01 C 369.57 203.35 359.46 229.83 348.75 256.06 C 347.85 254.63 347.03 253.16 346.41 251.59 C 326.36 200.33 306.22 149.10 286.13 97.86 C 285.12 95.06 283.58 92.39 283.21 89.40 Z" />
<path fill="#f40a41" opacity="1.00" d=" M 503.16 87.03 C 615.44 86.96 727.72 87.02 840.00 87.00 C 848.61 87.15 857.25 86.70 865.86 87.22 C 879.68 89.68 889.86 101.63 894.86 114.12 C 895.18 177.56 894.91 241.02 895.00 304.47 C 857.09 304.51 819.17 304.52 781.26 304.47 C 781.22 318.72 781.27 332.97 781.23 347.22 C 805.20 347.29 829.18 347.24 853.15 347.25 C 829.16 380.56 805.02 413.75 780.90 446.97 C 779.71 448.82 777.74 450.52 778.00 452.93 C 777.97 461.29 778.02 469.64 778.00 478.00 C 768.33 478.00 758.66 478.00 749.00 478.00 C 748.98 465.07 749.03 452.15 748.98 439.23 C 723.46 439.23 697.95 439.32 672.44 439.18 C 695.86 406.10 719.74 373.33 743.37 340.39 C 745.01 337.76 747.92 335.45 747.52 332.05 C 747.49 322.87 747.52 313.69 747.48 304.52 C 701.06 304.51 654.63 304.42 608.21 304.57 C 608.28 318.78 608.24 333.00 608.23 347.22 C 632.20 347.29 656.18 347.24 680.15 347.25 C 656.16 380.55 632.02 413.75 607.90 446.96 C 606.72 448.82 604.74 450.52 605.00 452.93 C 604.97 461.29 605.02 469.64 605.00 478.00 C 588.21 477.94 571.42 478.11 554.63 477.92 C 562.43 474.53 570.21 470.93 577.03 465.77 C 572.93 454.39 568.65 443.08 564.49 431.72 C 557.23 434.40 550.22 437.74 542.75 439.80 C 533.43 442.48 523.64 442.73 514.02 442.45 C 505.69 442.05 497.48 438.36 492.04 431.98 C 486.83 426.18 483.97 418.59 483.15 410.91 C 515.50 410.56 547.86 410.84 580.22 410.77 C 579.83 391.25 581.99 371.27 576.55 352.23 C 572.23 336.28 562.54 321.51 548.60 312.39 C 536.39 304.30 521.52 301.05 507.01 301.17 C 491.19 300.87 474.81 304.40 461.83 313.82 C 447.43 324.16 437.97 340.21 432.97 356.98 C 429.00 370.25 427.94 384.21 428.24 398.00 C 427.71 419.45 433.94 441.51 447.95 458.05 C 454.60 466.43 463.28 472.91 472.65 477.94 C 444.51 478.06 416.37 477.99 388.23 477.98 C 388.27 434.65 388.26 391.33 388.24 348.00 C 388.35 345.02 387.76 341.84 389.12 339.05 C 427.14 255.05 465.23 171.07 503.16 87.03 Z" />
<path fill="#f40a41" opacity="1.00" d=" M 91.08 262.11 C 134.42 223.29 177.58 184.28 220.97 145.52 C 249.56 208.50 277.90 271.60 306.44 334.61 C 307.10 335.95 307.26 337.46 307.26 338.95 C 307.22 385.30 307.27 431.65 307.24 478.00 C 298.21 477.89 289.17 478.20 280.15 477.87 C 274.10 473.34 268.66 468.01 262.83 463.19 C 249.95 452.44 237.91 440.76 225.54 429.43 C 182.11 389.21 138.67 348.99 95.23 308.77 C 91.13 304.87 86.49 301.34 83.67 296.33 C 80.22 290.68 79.14 283.59 81.11 277.23 C 82.93 271.40 86.50 266.14 91.08 262.11 M 170.35 252.56 C 161.46 254.47 153.70 260.70 149.73 268.85 C 146.44 275.00 146.69 282.24 147.37 288.98 C 149.93 302.98 163.78 313.88 178.03 312.96 C 193.35 313.22 206.81 299.90 207.90 284.87 C 209.07 272.18 201.20 259.35 189.54 254.33 C 183.56 251.62 176.73 251.56 170.35 252.56 Z" />
<path fill="#f40a41" opacity="1.00" d=" M 491.37 350.36 C 496.67 344.18 505.70 343.17 513.23 344.91 C 518.53 346.06 522.94 350.01 525.15 354.91 C 528.33 361.53 528.43 369.04 528.22 376.22 C 513.04 376.25 497.85 376.28 482.67 376.21 C 483.21 367.09 485.37 357.51 491.37 350.36 Z" />
<path fill="#f40a41" opacity="1.00" d=" M 845.43 439.18 C 861.75 416.11 878.26 393.17 894.94 370.37 C 895.07 393.32 894.97 416.28 895.00 439.24 C 878.47 439.22 861.95 439.33 845.43 439.18 Z" />
</g>
<g id="#595959ff">
<path fill="#595959" opacity="1.00" d=" M 15.23 501.81 C 44.49 501.68 73.74 501.76 102.99 501.77 C 103.01 508.33 103.00 514.89 103.00 521.46 C 80.84 521.56 58.67 521.46 36.51 521.51 C 36.47 532.38 36.55 543.25 36.46 554.13 C 56.36 554.40 76.28 554.18 96.19 554.23 C 96.29 560.56 96.27 566.89 96.22 573.22 C 76.35 573.27 56.48 573.28 36.60 573.21 C 36.40 584.21 36.50 595.22 36.55 606.23 C 59.43 606.27 82.31 606.25 105.19 606.23 C 105.30 612.82 105.26 619.40 105.23 625.99 C 75.23 625.99 45.22 626.04 15.22 625.97 C 15.27 584.58 15.25 543.19 15.23 501.81 Z" />
<path fill="#595959" opacity="1.00" d=" M 121.20 551.18 C 130.74 537.54 147.42 529.53 164.00 529.96 C 177.67 529.46 191.41 534.89 200.89 544.78 C 196.91 549.59 193.04 554.50 188.98 559.26 C 182.12 553.76 174.09 548.80 165.01 548.72 C 154.03 548.08 142.96 553.90 137.21 563.26 C 130.60 574.49 132.54 590.00 141.66 599.32 C 149.34 607.83 162.06 611.31 173.01 607.90 C 179.55 605.97 185.06 601.69 189.83 596.95 C 193.79 601.35 197.88 605.64 201.81 610.07 C 191.88 620.22 178.33 627.19 163.96 627.49 C 151.92 628.17 139.62 624.46 130.32 616.71 C 121.11 609.56 115.07 598.66 113.62 587.12 C 111.92 574.79 113.87 561.48 121.20 551.18 Z" />
<path fill="#595959" opacity="1.00" d=" M 246.39 530.50 C 258.06 528.98 270.47 530.25 280.80 536.22 C 292.43 543.00 301.56 554.52 304.23 567.85 C 306.42 578.99 305.37 590.98 300.14 601.17 C 293.40 613.95 280.92 623.76 266.63 626.46 C 254.47 628.73 241.32 627.64 230.34 621.64 C 218.06 614.90 208.58 602.76 206.02 588.88 C 203.52 575.83 205.75 561.54 213.69 550.68 C 221.26 539.89 233.29 532.29 246.39 530.50 M 248.37 548.57 C 243.95 549.42 239.79 551.45 236.29 554.26 C 221.44 566.00 221.59 591.86 236.58 603.41 C 247.37 611.84 264.24 611.66 274.65 602.67 C 289.32 590.48 288.53 564.19 272.74 553.26 C 265.81 548.17 256.67 547.02 248.37 548.57 Z" />
<path fill="#595959" opacity="1.00" d=" M 339.41 548.00 C 344.91 537.90 355.62 531.11 367.02 530.10 C 375.67 529.43 384.97 530.58 392.11 535.87 C 396.34 538.89 399.30 543.31 401.55 547.93 C 407.82 540.48 415.58 533.79 425.23 531.36 C 436.18 528.68 448.61 529.38 458.15 535.85 C 463.83 539.57 468.13 545.25 470.28 551.69 C 472.45 557.88 472.88 564.50 472.77 571.01 C 472.75 589.33 472.73 607.65 472.78 625.96 C 466.00 626.01 459.22 626.06 452.44 625.93 C 452.59 609.62 452.44 593.31 452.51 577.00 C 452.62 570.05 452.18 562.70 448.49 556.61 C 445.80 552.12 440.92 549.28 435.81 548.50 C 426.35 546.72 415.90 550.27 410.00 558.00 C 406.35 562.82 405.23 569.03 405.24 574.95 C 405.24 591.96 405.28 608.98 405.23 625.99 C 398.49 626.01 391.74 626.00 385.00 626.00 C 385.00 608.66 384.99 591.33 385.01 574.00 C 384.99 568.48 384.47 562.82 382.19 557.73 C 380.39 553.76 376.94 550.50 372.76 549.19 C 362.40 545.96 350.05 549.82 343.85 558.83 C 340.20 564.12 339.44 570.74 339.49 577.01 C 339.55 593.31 339.42 609.62 339.56 625.93 C 332.78 626.06 326.00 626.01 319.22 625.97 C 319.28 594.39 319.23 562.82 319.25 531.25 C 325.96 531.23 332.68 531.28 339.39 531.21 C 339.56 536.80 339.55 542.40 339.41 548.00 Z" />
<path fill="#595959" opacity="1.00" d=" M 511.41 548.00 C 516.91 537.90 527.61 531.11 539.02 530.10 C 547.66 529.43 556.97 530.58 564.11 535.87 C 568.34 538.90 571.30 543.31 573.55 547.93 C 579.81 540.48 587.59 533.79 597.24 531.36 C 608.40 528.62 621.14 529.42 630.74 536.26 C 636.86 540.42 641.15 546.94 643.02 554.06 C 645.26 561.84 644.70 570.01 644.75 578.00 C 644.77 593.99 644.72 609.98 644.78 625.96 C 638.00 626.01 631.21 626.06 624.44 625.93 C 624.59 609.62 624.44 593.31 624.51 577.00 C 624.62 570.06 624.18 562.70 620.49 556.61 C 617.80 552.12 612.92 549.27 607.81 548.50 C 598.35 546.72 587.90 550.27 582.01 558.00 C 578.35 562.81 577.23 569.03 577.24 574.95 C 577.24 591.96 577.28 608.98 577.23 625.99 C 570.48 626.00 563.74 626.00 557.00 626.00 C 557.00 609.67 556.98 593.34 557.01 577.01 C 557.08 570.75 556.91 564.28 554.49 558.42 C 552.77 554.14 549.19 550.57 544.75 549.19 C 534.40 545.96 522.05 549.82 515.85 558.83 C 512.20 564.12 511.44 570.74 511.49 577.01 C 511.55 593.31 511.42 609.62 511.56 625.93 C 504.78 626.06 498.00 626.01 491.22 625.96 C 491.28 594.39 491.23 562.82 491.25 531.25 C 497.96 531.23 504.68 531.28 511.39 531.21 C 511.56 536.80 511.55 542.40 511.41 548.00 Z" />
<path fill="#595959" opacity="1.00" d=" M 664.47 551.43 C 673.26 538.11 688.97 529.52 705.00 529.96 C 723.62 529.20 743.65 539.89 749.63 558.26 C 752.86 567.65 751.83 577.71 752.00 587.46 C 727.12 587.64 702.23 587.30 677.35 587.63 C 678.29 598.57 687.73 606.57 697.88 609.10 C 710.50 612.18 725.40 609.24 734.05 598.99 C 737.90 603.22 741.88 607.34 745.57 611.72 C 735.20 622.69 719.92 627.93 705.01 627.53 C 690.10 627.80 675.21 620.70 666.29 608.71 C 660.50 601.10 657.78 591.53 657.32 582.07 C 656.82 571.49 658.59 560.43 664.47 551.43 M 681.57 558.57 C 678.72 562.30 677.84 567.02 677.23 571.55 C 695.45 571.98 713.68 571.69 731.90 571.70 C 731.46 565.32 729.87 558.51 724.82 554.16 C 712.68 543.00 691.48 545.77 681.57 558.57 Z" />
<path fill="#595959" opacity="1.00" d=" M 784.41 549.92 C 790.75 538.94 802.13 530.11 815.19 529.84 C 815.14 536.60 815.63 543.36 815.45 550.12 C 808.15 550.19 800.33 551.64 794.83 556.83 C 787.37 563.80 784.75 574.38 784.55 584.28 C 784.40 598.19 784.59 612.09 784.46 626.00 C 777.71 625.99 770.96 626.03 764.22 625.96 C 764.28 594.39 764.23 562.82 764.25 531.25 C 770.96 531.23 777.67 531.28 784.39 531.21 C 784.56 537.44 784.55 543.68 784.41 549.92 Z" />
<path fill="#595959" opacity="1.00" d=" M 828.20 551.18 C 837.74 537.54 854.42 529.53 871.00 529.96 C 884.67 529.46 898.41 534.89 907.90 544.78 C 903.91 549.59 900.04 554.51 895.98 559.26 C 889.12 553.75 881.09 548.80 872.01 548.72 C 861.02 548.08 849.96 553.90 844.21 563.26 C 837.60 574.50 839.54 590.01 848.66 599.32 C 856.34 607.83 869.05 611.30 880.00 607.90 C 886.55 605.97 892.06 601.70 896.83 596.95 C 900.79 601.35 904.87 605.64 908.81 610.07 C 898.88 620.22 885.32 627.19 870.96 627.49 C 858.92 628.17 846.62 624.46 837.31 616.71 C 828.11 609.56 822.07 598.66 820.63 587.12 C 818.92 574.80 820.87 561.48 828.20 551.18 Z" />
<path fill="#595959" opacity="1.00" d=" M 922.27 550.24 C 929.74 539.80 941.43 532.31 954.20 530.47 C 965.85 528.94 978.23 530.46 988.45 536.57 C 996.52 541.27 1003.33 548.54 1006.37 557.49 C 1009.90 567.08 1008.84 577.45 1009.00 587.46 C 984.12 587.64 959.23 587.30 934.35 587.62 C 935.28 598.57 944.73 606.57 954.88 609.10 C 967.50 612.18 982.39 609.24 991.05 598.99 C 994.90 603.23 998.88 607.34 1002.57 611.72 C 992.43 622.43 977.59 627.72 963.00 627.53 C 951.07 627.88 939.05 623.80 930.05 615.92 C 921.48 608.79 916.16 598.22 914.80 587.22 C 913.19 574.59 914.81 560.89 922.27 550.24 M 938.57 558.57 C 935.72 562.29 934.84 567.01 934.23 571.55 C 952.45 571.98 970.68 571.69 988.90 571.70 C 988.46 565.33 986.87 558.52 981.82 554.16 C 969.68 543.00 948.49 545.77 938.57 558.57 Z" />
</g>
</svg>
